# xmcd
#
# Track frame offsets: 
#        150
#        17574
#        35863
#        52910
#        70560
#        88546
#        105715
#        119800
#        136751
#        156226
#        174456
#        189599
#        208107
#        224177
#        242214
#        259999
#        278298
#        294079
#        310268
#        328331
#
# Disc length: 4548 seconds
#
# Revision: 0
# Processed by: cddbd v1.5.2PL0 Copyright (c) Steve Scherf et al.
# Submitted via: ExactAudioCopy v0.99pb4
#
DISCID=2e11c214
DTITLE=สาลี่ ขนิษฐา - สาลี่ ขนิษฐา ชุด 1
DYEAR=2008
DGENRE=Country
TTITLE0=แซบจี๊ด   แซบจ๊าด
TTITLE1=พี่ยอดรักจ๋า
TTITLE2=หิ้ว
TTITLE3=น้ำใจศิลปิน
TTITLE4=เรียกเมียได้ไง
TTITLE5=โป๊ะเชะ  'นใจ
TTITLE6=ส่งซิก   กิ๊กรัก
TTITLE7=เว้นวรรคพักใจ
TTITLE8=อย่าไปคิด
TTITLE9=คิดถึงฉันจริงหรือเปล่า
TTITLE10=ปิ๊งหนุ่มหน้าตี๋
TTITLE11=รักเธอคนเดียว
TTITLE12=หลอกเราให้รัก
TTITLE13=จริงหรือเปล่า
TTITLE14=ฉันมั่ง  เขามั่ง
TTITLE15=ไม่ขอต่อรอง
TTITLE16=ดวงดีต้องได้
TTITLE17=ชอบไหมพี่
TTITLE18=ยอมแพ้
TTITLE19=สาวไม่มีเส้น
EXTD=
EXTT0=
EXTT1=
EXTT2=
EXTT3=
EXTT4=
EXTT5=
EXTT6=
EXTT7=
EXTT8=
EXTT9=
EXTT10=
EXTT11=
EXTT12=
EXTT13=
EXTT14=
EXTT15=
EXTT16=
EXTT17=
EXTT18=
EXTT19=
PLAYORDER=
